inDegrees=no
num_controls=7
num_derivatives=13
num_iterations=117
num_multipliers=7
num_parameters=0
num_slacks=7
num_states=26
objective=0.477108
objective_accelerations=0.044613
objective_balance=0.003657
objective_effort=0.040804
objective_height=0.382369
objective_ligament=0.005664
solver_duration=1569.967617
status=Solve_Succeeded
success=true
DataType=double
version=3
OpenSimVersion=4.5
endheader
time	/jointset/ground_pelvis/pelvis_tilt/value	/jointset/ground_pelvis/pelvis_tx/value	/jointset/ground_pelvis/pelvis_ty/value	/jointset/hip_l/hip_flexion_l/value	/jointset/hip_l/hip_adduction_l/value	/jointset/hip_l/hip_rotation_l/value	/jointset/back/lumbar_extension/value	/jointset/patellofemoral_l/patellar_flexion_l/value	/jointset/knee_l/knee_flexion_l/value	/jointset/knee_l/knee_adduction_l/value	/jointset/knee_l/knee_rotation_l/value	/jointset/ankle_l/ankle_angle_l/value	/jointset/subtalar_l/subtalar_angle_l/value	/jointset/ground_pelvis/pelvis_tilt/speed	/jointset/ground_pelvis/pelvis_tx/speed	/jointset/ground_pelvis/pelvis_ty/speed	/jointset/hip_l/hip_flexion_l/speed	/jointset/hip_l/hip_adduction_l/speed	/jointset/hip_l/hip_rotation_l/speed	/jointset/back/lumbar_extension/speed	/jointset/patellofemoral_l/patellar_flexion_l/speed	/jointset/knee_l/knee_flexion_l/speed	/jointset/knee_l/knee_adduction_l/speed	/jointset/knee_l/knee_rotation_l/speed	/jointset/ankle_l/ankle_angle_l/speed	/jointset/subtalar_l/subtalar_angle_l/speed	/forceset/tau_hip_flexion_l	/forceset/tau_hip_adduction_l	/forceset/tau_hip_rotation_l	/forceset/tau_knee_flexion_l	/forceset/tau_ankle_angle_l	/forceset/tau_subtalar_angle_l	/forceset/tau_lumbar_extension	lambda_cid13_p0	lambda_cid13_p1	lambda_cid13_p2	lambda_cid13_p3	lambda_cid13_p4	lambda_cid13_p5	lambda_cid14_p0	/jointset/ground_pelvis/pelvis_tilt/accel	/jointset/ground_pelvis/pelvis_tx/accel	/jointset/ground_pelvis/pelvis_ty/accel	/jointset/hip_l/hip_flexion_l/accel	/jointset/hip_l/hip_adduction_l/accel	/jointset/hip_l/hip_rotation_l/accel	/jointset/back/lumbar_extension/accel	/jointset/patellofemoral_l/patellar_flexion_l/accel	/jointset/knee_l/knee_flexion_l/accel	/jointset/knee_l/knee_adduction_l/accel	/jointset/knee_l/knee_rotation_l/accel	/jointset/ankle_l/ankle_angle_l/accel	/jointset/subtalar_l/subtalar_angle_l/accel	gamma_cid13_p0	gamma_cid13_p1	gamma_cid13_p2	gamma_cid13_p3	gamma_cid13_p4	gamma_cid13_p5	gamma_cid14_p0
0	-0.03678875479111999	0.05666261481267689	0.9203422027721883	0.3085816938045678	-0.2956303281222763	-0.3013880196577295	-0.3879492264334186	0.2499269421184906	0.2499269421184919	-0.1745325777293829	-0.1743175585781187	-0.0008036623358878681	0.0004453064108497004	0	0	0	0	0	0	0	0	0	0	0	0	0	0.0737805260397161	-0.03633952807280463	-0.02023787148821432	-0.2449640640120839	0.1954625291755158	-0.02649086901573454	0.001090840556563662	18.91826402359968	5.527941936161181	1.707991841030405	9.841624868345727	-621.2798277095201	-63.49244076926982	-23.18960730050463	-1.045361662931205	-2.052839772256388	-0.9347945575466858	9.39569409674483	-0.8529214511258258	3.328450247821257	-7.32097539483506	9.461358496776356	9.461358496774125	1.271079555742693	-0.1022677214382607	1.632304714756513	-0.3602070660830313	-6.337191504816652e-09	1.285498172787752e-07	7.861420327536177e-08	-7.589488127023072e-09	1.014323569290035e-07	-1.320204128836956e-08	-1.159324866037144e-09
0.01	-0.0368369354962297	0.05656130504242234	0.920296505522355	0.3090396419961218	-0.2956729812770609	-0.3012209266385064	-0.3883136764495955	0.2503905865768649	0.2503905865768795	-0.174472414103072	-0.1743191435896546	-0.0007242512216873263	0.0004265176940011263	-0.009562394860956256	-0.02014741087816944	-0.009102538962382396	0.09111605053558898	-0.008471916491850267	0.03327280042947941	-0.07236988476786604	0.09229914681649323	0.0922991468164817	0.01199840148827113	-0.000294514398843309	0.01584116638242777	-0.003709933780129773	0.06636210876373483	-0.04346198044617235	-0.01910630648922237	-0.2374817438158951	0.1835578660846063	-0.0143763580787089	0.007645605616415947	15.42907559394054	0.9034776072717624	2.415632633092033	10.51835469080325	-624.0670245402583	-72.55786285629109	-23.19500603651822	-0.9006247307329817	-1.978511787497902	-0.8924266284758443	8.898515969245752	-0.8355521380348998	3.304819142848252	-7.116977247680654	9.049731276967542	9.049731276967094	1.159102033255328	0.01033898069358793	1.553867050046071	-0.3692446890206491	-3.252070431705854e-08	1.51037679982551e-07	1.445579946587324e-07	2.064431954032094e-08	-3.896652186699819e-09	-4.8080899048869e-08	-6.127761335684374e-09
0.02	-0.03697852941655817	0.05626195715500602	0.9201608942703194	0.3103945417804861	-0.295798598674727	-0.3007254807745198	-0.3893862217594345	0.2517643302039942	0.2517643302039936	-0.174293290144264	-0.1743229972891961	-0.0004876595536500554	0.0003720580083427239	-0.01868264304412157	-0.03960762343235594	-0.01798280044045412	0.1793903185623702	-0.01659284857650766	0.06567056895244089	-0.1416190587324669	0.1820198337482549	0.1820198337482387	0.02379206649197966	-0.0004537376056485218	0.03143611076726287	-0.007134193761968388	0.05894369148772297	-0.05058443281955378	-0.01797474149035615	-0.2299994236197133	0.1716532029936848	-0.002261847141699895	0.01420037067625998	12.01313131994247	-3.731876638083427	3.122799759456756	11.0844186574774	-625.7585613619207	-81.53215115338041	-23.21083842213194	-0.9569323273730526	-1.915400107459769	-0.8903390606845544	8.827337594983264	-0.7827245696872823	3.153443866517684	-6.696833234182039	8.945666519830041	8.945666519829176	1.230132258830112	-0.07520948303063942	1.583060315238003	-0.3030723064248219	-5.870421712930043e-08	1.735255426863268e-07	2.10501786042103e-07	4.887812720766496e-08	-1.092256613024031e-07	-8.295975680936845e-08	-1.10961978053316e-08
0.03	-0.03720963723998274	0.05577188802924338	0.9199373609029473	0.3126181534270351	-0.2960036591846227	-0.2999108858469473	-0.3911356174058238	0.2540225942467162	0.254022594246716	-0.1739974366978927	-0.1743281942824442	-9.585042801509498e-05	0.0002849631693942712	-0.02749121075662466	-0.05824686506451734	-0.02670530896412405	0.2648376337222191	-0.02436864032153126	0.09708494454426912	-0.2077657385783222	0.2692115818161375	0.2692115818160927	0.03530350405440242	-0.0005802818043877669	0.04693241870707093	-0.01022959848808695	0.05391776955515734	-0.04451202367605488	-0.01761121006158337	-0.2278805954823619	0.1725437195561165	-0.005827155243978885	0.01923092466619379	12.12148054036718	-2.243919603224849	2.932964764880537	9.762184312464166	-627.427069194424	-77.68892215525072	-23.23637811873354	-0.8356697295606939	-1.814275802978417	-0.8604444084361518	8.329261679442913	-0.7674678640267661	3.110889439215707	-6.499435564766817	8.542722242556533	8.54272224255268	1.100431692252385	0.01946103127831399	1.533922892797543	-0.3045498038311897	-8.340898731063604e-08	1.432920653285701e-07	2.750802019564067e-07	7.005855451566658e-08	-2.094762737485144e-07	-1.304458881772745e-07	-2.128728339205767e-08
